<mxfile host="app.diagrams.net" modified="2023-10-16T20:22:58.503Z" agent="Mozilla/5.0 (X11; Linux x86_64) AppleWebKit/537.36 (KHTML, like Gecko) Chrome/118.0.0.0 Safari/537.36" etag="KUyZ1nQsqfNKUvjf2So2" version="22.0.4" type="device">
  <diagram name="Page-1" id="8ce9d11a-91a2-4d17-14d8-a56ed91bf033">
    <mxGraphModel dx="2466" dy="707" grid="1" gridSize="10" guides="1" tooltips="1" connect="1" arrows="1" fold="1" page="1" pageScale="1" pageWidth="1100" pageHeight="850" background="#373D31" math="0" shadow="0">
      <root>
        <mxCell id="0" />
        <mxCell id="1" parent="0" />
        <mxCell id="rWkgHud9PI8sYh2So6Fc-36" value="" style="rounded=0;whiteSpace=wrap;html=1;strokeColor=#FFFFFF;" vertex="1" parent="1">
          <mxGeometry x="700" y="87" width="140" height="128" as="geometry" />
        </mxCell>
        <mxCell id="rWkgHud9PI8sYh2So6Fc-65" style="edgeStyle=orthogonalEdgeStyle;rounded=0;orthogonalLoop=1;jettySize=auto;html=1;entryX=0;entryY=0.5;entryDx=0;entryDy=0;strokeColor=#FFFFFF;" edge="1" parent="1" source="rWkgHud9PI8sYh2So6Fc-8" target="rWkgHud9PI8sYh2So6Fc-16">
          <mxGeometry relative="1" as="geometry" />
        </mxCell>
        <mxCell id="rWkgHud9PI8sYh2So6Fc-8" value="Coordinación de Asuntos Académicos (A)" style="rounded=0;whiteSpace=wrap;html=1;strokeColor=#FFFFFF;" vertex="1" parent="1">
          <mxGeometry x="307" y="87" width="120" height="60" as="geometry" />
        </mxCell>
        <mxCell id="rWkgHud9PI8sYh2So6Fc-57" style="edgeStyle=orthogonalEdgeStyle;rounded=0;orthogonalLoop=1;jettySize=auto;html=1;entryX=0.5;entryY=1;entryDx=0;entryDy=0;dashed=1;strokeColor=#FFFFFF;" edge="1" parent="1" source="rWkgHud9PI8sYh2So6Fc-9" target="rWkgHud9PI8sYh2So6Fc-8">
          <mxGeometry relative="1" as="geometry" />
        </mxCell>
        <mxCell id="rWkgHud9PI8sYh2So6Fc-66" style="edgeStyle=orthogonalEdgeStyle;rounded=0;orthogonalLoop=1;jettySize=auto;html=1;entryX=0;entryY=0.5;entryDx=0;entryDy=0;strokeColor=#FFFFFF;" edge="1" parent="1" source="rWkgHud9PI8sYh2So6Fc-9" target="rWkgHud9PI8sYh2So6Fc-16">
          <mxGeometry relative="1" as="geometry" />
        </mxCell>
        <mxCell id="rWkgHud9PI8sYh2So6Fc-9" value="Coordinación de Investigaciones (A)" style="rounded=0;whiteSpace=wrap;html=1;strokeColor=#FFFFFF;" vertex="1" parent="1">
          <mxGeometry x="307" y="175" width="120" height="60" as="geometry" />
        </mxCell>
        <mxCell id="rWkgHud9PI8sYh2So6Fc-60" style="edgeStyle=orthogonalEdgeStyle;rounded=0;orthogonalLoop=1;jettySize=auto;html=1;dashed=1;strokeColor=#FFFFFF;" edge="1" parent="1" source="rWkgHud9PI8sYh2So6Fc-10" target="rWkgHud9PI8sYh2So6Fc-9">
          <mxGeometry relative="1" as="geometry" />
        </mxCell>
        <mxCell id="rWkgHud9PI8sYh2So6Fc-67" style="edgeStyle=orthogonalEdgeStyle;rounded=0;orthogonalLoop=1;jettySize=auto;html=1;entryX=0;entryY=0.5;entryDx=0;entryDy=0;strokeColor=#FFFFFF;" edge="1" parent="1" source="rWkgHud9PI8sYh2So6Fc-10" target="rWkgHud9PI8sYh2So6Fc-17">
          <mxGeometry relative="1" as="geometry" />
        </mxCell>
        <mxCell id="rWkgHud9PI8sYh2So6Fc-10" value="Coordinación de Extensión Universitaria (A)" style="rounded=0;whiteSpace=wrap;html=1;strokeColor=#FFFFFF;" vertex="1" parent="1">
          <mxGeometry x="307" y="262" width="120" height="60" as="geometry" />
        </mxCell>
        <mxCell id="rWkgHud9PI8sYh2So6Fc-55" style="edgeStyle=orthogonalEdgeStyle;rounded=0;orthogonalLoop=1;jettySize=auto;html=1;entryX=0.5;entryY=1;entryDx=0;entryDy=0;dashed=1;strokeColor=#FFFFFF;" edge="1" parent="1" source="rWkgHud9PI8sYh2So6Fc-11" target="rWkgHud9PI8sYh2So6Fc-10">
          <mxGeometry relative="1" as="geometry" />
        </mxCell>
        <mxCell id="rWkgHud9PI8sYh2So6Fc-68" style="edgeStyle=orthogonalEdgeStyle;rounded=0;orthogonalLoop=1;jettySize=auto;html=1;entryX=0;entryY=0.5;entryDx=0;entryDy=0;strokeColor=#FFFFFF;" edge="1" parent="1" source="rWkgHud9PI8sYh2So6Fc-11" target="rWkgHud9PI8sYh2So6Fc-17">
          <mxGeometry relative="1" as="geometry" />
        </mxCell>
        <mxCell id="rWkgHud9PI8sYh2So6Fc-71" style="edgeStyle=orthogonalEdgeStyle;rounded=0;orthogonalLoop=1;jettySize=auto;html=1;entryX=0;entryY=0.5;entryDx=0;entryDy=0;strokeColor=#FFFFFF;" edge="1" parent="1" source="rWkgHud9PI8sYh2So6Fc-11" target="rWkgHud9PI8sYh2So6Fc-16">
          <mxGeometry relative="1" as="geometry" />
        </mxCell>
        <mxCell id="rWkgHud9PI8sYh2So6Fc-11" value="Administración (A)" style="rounded=0;whiteSpace=wrap;html=1;strokeColor=#FFFFFF;" vertex="1" parent="1">
          <mxGeometry x="307" y="350" width="120" height="60" as="geometry" />
        </mxCell>
        <mxCell id="rWkgHud9PI8sYh2So6Fc-54" style="edgeStyle=orthogonalEdgeStyle;rounded=0;orthogonalLoop=1;jettySize=auto;html=1;entryX=0.5;entryY=1;entryDx=0;entryDy=0;dashed=1;strokeColor=#FFFFFF;" edge="1" parent="1" source="rWkgHud9PI8sYh2So6Fc-12" target="rWkgHud9PI8sYh2So6Fc-11">
          <mxGeometry relative="1" as="geometry" />
        </mxCell>
        <mxCell id="rWkgHud9PI8sYh2So6Fc-69" style="edgeStyle=orthogonalEdgeStyle;rounded=0;orthogonalLoop=1;jettySize=auto;html=1;entryX=0;entryY=0.5;entryDx=0;entryDy=0;strokeColor=#FFFFFF;" edge="1" parent="1" source="rWkgHud9PI8sYh2So6Fc-12" target="rWkgHud9PI8sYh2So6Fc-17">
          <mxGeometry relative="1" as="geometry" />
        </mxCell>
        <mxCell id="rWkgHud9PI8sYh2So6Fc-70" style="edgeStyle=orthogonalEdgeStyle;rounded=0;orthogonalLoop=1;jettySize=auto;html=1;entryX=0;entryY=0.5;entryDx=0;entryDy=0;strokeColor=#FFFFFF;" edge="1" parent="1" source="rWkgHud9PI8sYh2So6Fc-12" target="rWkgHud9PI8sYh2So6Fc-16">
          <mxGeometry relative="1" as="geometry" />
        </mxCell>
        <mxCell id="rWkgHud9PI8sYh2So6Fc-12" value="Contrucción Edificio Rectorado (Pr)" style="rounded=0;whiteSpace=wrap;html=1;strokeColor=#FFFFFF;" vertex="1" parent="1">
          <mxGeometry x="307" y="437" width="120" height="60" as="geometry" />
        </mxCell>
        <mxCell id="rWkgHud9PI8sYh2So6Fc-20" style="edgeStyle=orthogonalEdgeStyle;rounded=0;orthogonalLoop=1;jettySize=auto;html=1;entryX=0;entryY=0.5;entryDx=0;entryDy=0;strokeColor=#FFFFFF;" edge="1" parent="1" source="rWkgHud9PI8sYh2So6Fc-13" target="rWkgHud9PI8sYh2So6Fc-8">
          <mxGeometry relative="1" as="geometry" />
        </mxCell>
        <mxCell id="rWkgHud9PI8sYh2So6Fc-21" style="edgeStyle=orthogonalEdgeStyle;rounded=0;orthogonalLoop=1;jettySize=auto;html=1;entryX=0;entryY=0.5;entryDx=0;entryDy=0;strokeColor=#FFFFFF;" edge="1" parent="1" source="rWkgHud9PI8sYh2So6Fc-13" target="rWkgHud9PI8sYh2So6Fc-9">
          <mxGeometry relative="1" as="geometry" />
        </mxCell>
        <mxCell id="rWkgHud9PI8sYh2So6Fc-24" style="edgeStyle=orthogonalEdgeStyle;rounded=0;orthogonalLoop=1;jettySize=auto;html=1;entryX=0;entryY=0.5;entryDx=0;entryDy=0;strokeColor=#FFFFFF;" edge="1" parent="1" source="rWkgHud9PI8sYh2So6Fc-13" target="rWkgHud9PI8sYh2So6Fc-11">
          <mxGeometry relative="1" as="geometry" />
        </mxCell>
        <mxCell id="rWkgHud9PI8sYh2So6Fc-26" style="edgeStyle=orthogonalEdgeStyle;rounded=0;orthogonalLoop=1;jettySize=auto;html=1;entryX=0;entryY=0.5;entryDx=0;entryDy=0;strokeColor=#FFFFFF;" edge="1" parent="1" source="rWkgHud9PI8sYh2So6Fc-13" target="rWkgHud9PI8sYh2So6Fc-12">
          <mxGeometry relative="1" as="geometry" />
        </mxCell>
        <mxCell id="rWkgHud9PI8sYh2So6Fc-52" style="edgeStyle=orthogonalEdgeStyle;rounded=0;orthogonalLoop=1;jettySize=auto;html=1;entryX=0;entryY=0.5;entryDx=0;entryDy=0;strokeColor=#FFFFFF;" edge="1" parent="1" source="rWkgHud9PI8sYh2So6Fc-13" target="rWkgHud9PI8sYh2So6Fc-10">
          <mxGeometry relative="1" as="geometry" />
        </mxCell>
        <mxCell id="rWkgHud9PI8sYh2So6Fc-13" value="Conducción (Rector)&lt;br&gt;(A)" style="rounded=0;whiteSpace=wrap;html=1;strokeColor=#FFFFFF;" vertex="1" parent="1">
          <mxGeometry x="130" y="245" width="120" height="60" as="geometry" />
        </mxCell>
        <mxCell id="rWkgHud9PI8sYh2So6Fc-53" style="edgeStyle=orthogonalEdgeStyle;rounded=0;orthogonalLoop=1;jettySize=auto;html=1;entryX=0;entryY=0.5;entryDx=0;entryDy=0;strokeColor=#FFFFFF;" edge="1" parent="1" source="rWkgHud9PI8sYh2So6Fc-15" target="rWkgHud9PI8sYh2So6Fc-13">
          <mxGeometry relative="1" as="geometry" />
        </mxCell>
        <mxCell id="rWkgHud9PI8sYh2So6Fc-15" value="Universidad (Ámbito institucional)" style="rounded=0;whiteSpace=wrap;html=1;strokeColor=#FFFFFF;" vertex="1" parent="1">
          <mxGeometry x="-20" y="245" width="120" height="60" as="geometry" />
        </mxCell>
        <mxCell id="rWkgHud9PI8sYh2So6Fc-72" style="edgeStyle=orthogonalEdgeStyle;rounded=0;orthogonalLoop=1;jettySize=auto;html=1;strokeColor=#FFFFFF;" edge="1" parent="1" source="rWkgHud9PI8sYh2So6Fc-16" target="rWkgHud9PI8sYh2So6Fc-36">
          <mxGeometry relative="1" as="geometry" />
        </mxCell>
        <mxCell id="rWkgHud9PI8sYh2So6Fc-74" style="edgeStyle=orthogonalEdgeStyle;rounded=0;orthogonalLoop=1;jettySize=auto;html=1;entryX=0;entryY=0.5;entryDx=0;entryDy=0;strokeColor=#FFFFFF;" edge="1" parent="1" source="rWkgHud9PI8sYh2So6Fc-16" target="rWkgHud9PI8sYh2So6Fc-37">
          <mxGeometry relative="1" as="geometry" />
        </mxCell>
        <mxCell id="rWkgHud9PI8sYh2So6Fc-16" value="Mantenimiento edificio Facultad de Derecho y Cs Económicas (A)" style="rounded=0;whiteSpace=wrap;html=1;strokeColor=#FFFFFF;" vertex="1" parent="1">
          <mxGeometry x="520" y="175" width="120" height="60" as="geometry" />
        </mxCell>
        <mxCell id="rWkgHud9PI8sYh2So6Fc-73" style="edgeStyle=orthogonalEdgeStyle;rounded=0;orthogonalLoop=1;jettySize=auto;html=1;strokeColor=#FFFFFF;" edge="1" parent="1" source="rWkgHud9PI8sYh2So6Fc-17" target="rWkgHud9PI8sYh2So6Fc-37">
          <mxGeometry relative="1" as="geometry" />
        </mxCell>
        <mxCell id="rWkgHud9PI8sYh2So6Fc-17" value="Construcción edificio Facultad de Derecho y Cs Económicas (Pr)" style="rounded=0;whiteSpace=wrap;html=1;strokeColor=#FFFFFF;" vertex="1" parent="1">
          <mxGeometry x="520" y="295" width="120" height="60" as="geometry" />
        </mxCell>
        <mxCell id="rWkgHud9PI8sYh2So6Fc-31" value="Formación de RRHH en Derecho" style="rounded=0;whiteSpace=wrap;html=1;strokeColor=#FFFFFF;" vertex="1" parent="1">
          <mxGeometry x="870" y="85" width="80" height="130" as="geometry" />
        </mxCell>
        <mxCell id="rWkgHud9PI8sYh2So6Fc-78" style="edgeStyle=orthogonalEdgeStyle;rounded=0;orthogonalLoop=1;jettySize=auto;html=1;strokeColor=#FFFFFF;" edge="1" parent="1" source="rWkgHud9PI8sYh2So6Fc-32" target="rWkgHud9PI8sYh2So6Fc-31">
          <mxGeometry relative="1" as="geometry" />
        </mxCell>
        <mxCell id="rWkgHud9PI8sYh2So6Fc-32" value="Investigación (A)" style="rounded=0;whiteSpace=wrap;html=1;strokeColor=#FFFFFF;" vertex="1" parent="1">
          <mxGeometry x="710" y="175" width="120" height="30" as="geometry" />
        </mxCell>
        <mxCell id="rWkgHud9PI8sYh2So6Fc-77" style="edgeStyle=orthogonalEdgeStyle;rounded=0;orthogonalLoop=1;jettySize=auto;html=1;strokeColor=#FFFFFF;" edge="1" parent="1" source="rWkgHud9PI8sYh2So6Fc-33" target="rWkgHud9PI8sYh2So6Fc-31">
          <mxGeometry relative="1" as="geometry" />
        </mxCell>
        <mxCell id="rWkgHud9PI8sYh2So6Fc-33" value="Docencia (A)" style="rounded=0;whiteSpace=wrap;html=1;strokeColor=#FFFFFF;" vertex="1" parent="1">
          <mxGeometry x="710" y="135" width="120" height="30" as="geometry" />
        </mxCell>
        <mxCell id="rWkgHud9PI8sYh2So6Fc-76" style="edgeStyle=orthogonalEdgeStyle;rounded=0;orthogonalLoop=1;jettySize=auto;html=1;strokeColor=#FFFFFF;" edge="1" parent="1" source="rWkgHud9PI8sYh2So6Fc-34" target="rWkgHud9PI8sYh2So6Fc-31">
          <mxGeometry relative="1" as="geometry" />
        </mxCell>
        <mxCell id="rWkgHud9PI8sYh2So6Fc-34" value="Dirección (A)" style="rounded=0;whiteSpace=wrap;html=1;strokeColor=#FFFFFF;" vertex="1" parent="1">
          <mxGeometry x="710" y="95" width="120" height="30" as="geometry" />
        </mxCell>
        <mxCell id="rWkgHud9PI8sYh2So6Fc-37" value="" style="rounded=0;whiteSpace=wrap;html=1;strokeColor=#FFFFFF;" vertex="1" parent="1">
          <mxGeometry x="700" y="235" width="140" height="128" as="geometry" />
        </mxCell>
        <mxCell id="rWkgHud9PI8sYh2So6Fc-81" style="edgeStyle=orthogonalEdgeStyle;rounded=0;orthogonalLoop=1;jettySize=auto;html=1;strokeColor=#FFFFFF;" edge="1" parent="1" source="rWkgHud9PI8sYh2So6Fc-38" target="rWkgHud9PI8sYh2So6Fc-46">
          <mxGeometry relative="1" as="geometry" />
        </mxCell>
        <mxCell id="rWkgHud9PI8sYh2So6Fc-38" value="Investigación (A)" style="rounded=0;whiteSpace=wrap;html=1;strokeColor=#FFFFFF;" vertex="1" parent="1">
          <mxGeometry x="710" y="323" width="120" height="30" as="geometry" />
        </mxCell>
        <mxCell id="rWkgHud9PI8sYh2So6Fc-80" style="edgeStyle=orthogonalEdgeStyle;rounded=0;orthogonalLoop=1;jettySize=auto;html=1;strokeColor=#FFFFFF;" edge="1" parent="1" source="rWkgHud9PI8sYh2So6Fc-39" target="rWkgHud9PI8sYh2So6Fc-46">
          <mxGeometry relative="1" as="geometry" />
        </mxCell>
        <mxCell id="rWkgHud9PI8sYh2So6Fc-39" value="Docencia (A)" style="rounded=0;whiteSpace=wrap;html=1;strokeColor=#FFFFFF;" vertex="1" parent="1">
          <mxGeometry x="710" y="283" width="120" height="30" as="geometry" />
        </mxCell>
        <mxCell id="rWkgHud9PI8sYh2So6Fc-79" style="edgeStyle=orthogonalEdgeStyle;rounded=0;orthogonalLoop=1;jettySize=auto;html=1;strokeColor=#FFFFFF;" edge="1" parent="1" source="rWkgHud9PI8sYh2So6Fc-40" target="rWkgHud9PI8sYh2So6Fc-46">
          <mxGeometry relative="1" as="geometry" />
        </mxCell>
        <mxCell id="rWkgHud9PI8sYh2So6Fc-40" value="Dirección (A)" style="rounded=0;whiteSpace=wrap;html=1;strokeColor=#FFFFFF;" vertex="1" parent="1">
          <mxGeometry x="710" y="243" width="120" height="30" as="geometry" />
        </mxCell>
        <mxCell id="rWkgHud9PI8sYh2So6Fc-41" value="" style="rounded=0;whiteSpace=wrap;html=1;strokeColor=#FFFFFF;" vertex="1" parent="1">
          <mxGeometry x="700" y="385" width="140" height="170" as="geometry" />
        </mxCell>
        <mxCell id="rWkgHud9PI8sYh2So6Fc-84" style="edgeStyle=orthogonalEdgeStyle;rounded=0;orthogonalLoop=1;jettySize=auto;html=1;strokeColor=#FFFFFF;" edge="1" parent="1" source="rWkgHud9PI8sYh2So6Fc-42" target="rWkgHud9PI8sYh2So6Fc-47">
          <mxGeometry relative="1" as="geometry" />
        </mxCell>
        <mxCell id="rWkgHud9PI8sYh2So6Fc-42" value="Investigación (A)" style="rounded=0;whiteSpace=wrap;html=1;strokeColor=#FFFFFF;" vertex="1" parent="1">
          <mxGeometry x="710" y="473" width="120" height="30" as="geometry" />
        </mxCell>
        <mxCell id="rWkgHud9PI8sYh2So6Fc-83" style="edgeStyle=orthogonalEdgeStyle;rounded=0;orthogonalLoop=1;jettySize=auto;html=1;strokeColor=#FFFFFF;" edge="1" parent="1" source="rWkgHud9PI8sYh2So6Fc-43" target="rWkgHud9PI8sYh2So6Fc-47">
          <mxGeometry relative="1" as="geometry" />
        </mxCell>
        <mxCell id="rWkgHud9PI8sYh2So6Fc-43" value="Docencia (A)" style="rounded=0;whiteSpace=wrap;html=1;strokeColor=#FFFFFF;" vertex="1" parent="1">
          <mxGeometry x="710" y="433" width="120" height="30" as="geometry" />
        </mxCell>
        <mxCell id="rWkgHud9PI8sYh2So6Fc-82" style="edgeStyle=orthogonalEdgeStyle;rounded=0;orthogonalLoop=1;jettySize=auto;html=1;strokeColor=#FFFFFF;" edge="1" parent="1" source="rWkgHud9PI8sYh2So6Fc-44" target="rWkgHud9PI8sYh2So6Fc-47">
          <mxGeometry relative="1" as="geometry" />
        </mxCell>
        <mxCell id="rWkgHud9PI8sYh2So6Fc-44" value="Dirección (A)" style="rounded=0;whiteSpace=wrap;html=1;strokeColor=#FFFFFF;" vertex="1" parent="1">
          <mxGeometry x="710" y="393" width="120" height="30" as="geometry" />
        </mxCell>
        <mxCell id="rWkgHud9PI8sYh2So6Fc-45" value="Construcción Edificio Fac Cs Exactas (Pr)" style="rounded=0;whiteSpace=wrap;html=1;strokeColor=#FFFFFF;" vertex="1" parent="1">
          <mxGeometry x="710" y="515" width="120" height="30" as="geometry" />
        </mxCell>
        <mxCell id="rWkgHud9PI8sYh2So6Fc-46" value="Formación de RRHH en Cs Económicas&amp;nbsp;" style="rounded=0;whiteSpace=wrap;html=1;strokeColor=#FFFFFF;" vertex="1" parent="1">
          <mxGeometry x="870" y="235" width="80" height="130" as="geometry" />
        </mxCell>
        <mxCell id="rWkgHud9PI8sYh2So6Fc-47" value="Formación de RRHH en Cs Exactas" style="rounded=0;whiteSpace=wrap;html=1;strokeColor=#FFFFFF;" vertex="1" parent="1">
          <mxGeometry x="870" y="385" width="80" height="130" as="geometry" />
        </mxCell>
        <mxCell id="rWkgHud9PI8sYh2So6Fc-48" value="Insumos" style="rounded=0;whiteSpace=wrap;html=1;" vertex="1" parent="1">
          <mxGeometry x="130" y="579" width="820" height="40" as="geometry" />
        </mxCell>
        <mxCell id="rWkgHud9PI8sYh2So6Fc-85" value="Programas" style="rounded=0;whiteSpace=wrap;html=1;strokeColor=#FFFFFF;" vertex="1" parent="1">
          <mxGeometry x="130" y="20" width="150" height="60" as="geometry" />
        </mxCell>
        <mxCell id="rWkgHud9PI8sYh2So6Fc-86" value="Actividades y Proyectos Centrales" style="rounded=0;whiteSpace=wrap;html=1;strokeColor=#FFFFFF;" vertex="1" parent="1">
          <mxGeometry x="280" y="20" width="210" height="60" as="geometry" />
        </mxCell>
        <mxCell id="rWkgHud9PI8sYh2So6Fc-87" value="Actividades y Proyectos Común" style="rounded=0;whiteSpace=wrap;html=1;strokeColor=#FFFFFF;" vertex="1" parent="1">
          <mxGeometry x="490" y="20" width="190" height="60" as="geometry" />
        </mxCell>
        <mxCell id="rWkgHud9PI8sYh2So6Fc-88" value="Actividades y Proyectos Específicos" style="rounded=0;whiteSpace=wrap;html=1;strokeColor=#FFFFFF;" vertex="1" parent="1">
          <mxGeometry x="680" y="20" width="270" height="60" as="geometry" />
        </mxCell>
        <mxCell id="rWkgHud9PI8sYh2So6Fc-94" value="" style="swimlane;startSize=0;strokeColor=#FFFFFF;" vertex="1" parent="1">
          <mxGeometry x="120" y="15" width="840" height="615" as="geometry" />
        </mxCell>
      </root>
    </mxGraphModel>
  </diagram>
</mxfile>
